<?xml version="1.0" encoding="utf-8"?>
<!-- Generator: Adobe Illustrator 25.0.0, SVG Export Plug-In . SVG Version: 6.00 Build 0)  -->
<svg version="1.1" id="Layer_1" xmlns="http://www.w3.org/2000/svg" xmlns:xlink="http://www.w3.org/1999/xlink" x="0px" y="0px"
	 viewBox="0 0 358 222.7" style="enable-background:new 0 0 358 222.7;" xml:space="preserve">
<style type="text/css">
	.st0{fill:url(#SVGID_1_);}
	.st1{fill:url(#SVGID_2_);}
	.st2{fill:url(#SVGID_3_);}
	.st3{fill:url(#SVGID_4_);}
	.st4{fill:url(#SVGID_5_);}
	.st5{fill:url(#SVGID_6_);}
	.st6{fill:url(#SVGID_7_);}
	.st7{fill:url(#SVGID_8_);}
	.st8{fill:url(#SVGID_9_);}
	.st9{fill:url(#SVGID_10_);}
	.st10{fill:url(#SVGID_11_);}
	.st11{fill:url(#SVGID_12_);}
	.st12{fill:url(#SVGID_13_);}
	.st13{fill:url(#SVGID_14_);}
	.st14{fill:url(#SVGID_15_);}
	.st15{fill:url(#SVGID_16_);}
	.st16{fill:url(#SVGID_17_);}
	.st17{fill:url(#SVGID_18_);}
	.st18{fill:url(#SVGID_19_);}
	.st19{fill:url(#SVGID_20_);}
	.st20{fill:url(#SVGID_21_);}
	.st21{fill:url(#SVGID_22_);}
	.st22{fill:url(#SVGID_23_);}
	.st23{fill:url(#SVGID_24_);}
	.st24{fill:url(#SVGID_25_);}
	.st25{fill:url(#SVGID_26_);}
	.st26{fill:url(#SVGID_27_);}
	.st27{fill:url(#SVGID_28_);}
	.st28{fill:url(#SVGID_29_);}
	.st29{fill:#414042;}
	.st30{fill:url(#SVGID_30_);}
</style>
<g>
	<g>
		<linearGradient id="SVGID_1_" gradientUnits="userSpaceOnUse" x1="0" y1="212.5504" x2="10.041" y2="212.5504">
			<stop  offset="0" style="stop-color:#83CBA8"/>
			<stop  offset="3.524179e-02" style="stop-color:#77C0AA"/>
			<stop  offset="0.218" style="stop-color:#3799B1"/>
			<stop  offset="0.3773" style="stop-color:#0081B2"/>
			<stop  offset="0.5056" style="stop-color:#0074B3"/>
			<stop  offset="0.5867" style="stop-color:#0070B4"/>
			<stop  offset="1" style="stop-color:#145A92"/>
		</linearGradient>
		<path class="st0" d="M10,208.9H9.7c-0.2-0.6-0.4-1.2-0.8-1.6c-0.3-0.4-1.1-0.6-2.2-0.6H3.8v5.1h2.4c0.6,0,1.1-0.1,1.3-0.4
			c0.2-0.3,0.4-0.7,0.5-1.4h0.4v4.4H8c0-0.7-0.2-1.1-0.4-1.4c-0.3-0.3-0.7-0.4-1.3-0.4H3.8l0,4.1c0,0.7,0,1.2,0.1,1.3
			c0.1,0.2,0.3,0.3,0.5,0.4c0.3,0.1,0.5,0.2,0.8,0.2h0.5l0,0.4H0v-0.4h0.5c0.6,0,1-0.1,1.2-0.4c0.2-0.3,0.3-0.8,0.3-1.5l0-8.5
			c0-0.8-0.1-1.4-0.3-1.6c-0.2-0.2-0.6-0.4-1.1-0.4H0V206h9.9L10,208.9z"/>
		<linearGradient id="SVGID_2_" gradientUnits="userSpaceOnUse" x1="14.3208" y1="212.5504" x2="25.7827" y2="212.5504">
			<stop  offset="0" style="stop-color:#83CBA8"/>
			<stop  offset="3.524179e-02" style="stop-color:#77C0AA"/>
			<stop  offset="0.218" style="stop-color:#3799B1"/>
			<stop  offset="0.3773" style="stop-color:#0081B2"/>
			<stop  offset="0.5056" style="stop-color:#0074B3"/>
			<stop  offset="0.5867" style="stop-color:#0070B4"/>
			<stop  offset="1" style="stop-color:#145A92"/>
		</linearGradient>
		<path class="st1" d="M25.8,215.5l-1.1,3.6H14.3l0-0.4h0.5c0.6,0,0.9-0.1,1.1-0.4c0.2-0.3,0.3-0.8,0.3-1.5l0-8.4
			c0-0.9-0.1-1.4-0.4-1.6c-0.3-0.2-0.6-0.3-1-0.3h-0.5V206h6v0.4c-0.6,0-1,0.1-1.3,0.2c-0.3,0.1-0.6,0.3-0.7,0.5
			c-0.1,0.2-0.2,0.7-0.2,1.6l0,8.2c0,0.7,0.1,1.1,0.3,1.2c0.2,0.2,0.8,0.3,1.8,0.3h1c0.8,0,1.4,0,1.9-0.1c0.5-0.1,0.9-0.3,1.3-0.7
			c0.4-0.4,0.8-1,1.2-1.9L25.8,215.5z"/>
		<linearGradient id="SVGID_3_" gradientUnits="userSpaceOnUse" x1="29.459" y1="212.5504" x2="43.5147" y2="212.5504">
			<stop  offset="0" style="stop-color:#83CBA8"/>
			<stop  offset="3.524179e-02" style="stop-color:#77C0AA"/>
			<stop  offset="0.218" style="stop-color:#3799B1"/>
			<stop  offset="0.3773" style="stop-color:#0081B2"/>
			<stop  offset="0.5056" style="stop-color:#0074B3"/>
			<stop  offset="0.5867" style="stop-color:#0070B4"/>
			<stop  offset="1" style="stop-color:#145A92"/>
		</linearGradient>
		<path class="st2" d="M43.5,206.4h-0.3c-0.3,0-0.7,0.1-1,0.3c-0.4,0.2-0.9,0.8-1.6,1.9l-3.2,5l0,3.3c0,0.9,0.1,1.4,0.4,1.6
			c0.2,0.2,0.6,0.3,1.1,0.3h0.4l0,0.4h-5.7l0-0.4h0.5c0.6,0,1-0.1,1.1-0.4c0.2-0.3,0.3-0.8,0.3-1.5l0-3.1l-3.7-5.5
			c-0.4-0.6-0.6-0.9-0.8-1.1c-0.2-0.2-0.4-0.4-0.7-0.5c-0.3-0.2-0.6-0.2-0.9-0.2V206h5.7v0.4h-0.3c-0.8,0-1.2,0.3-1.2,0.8
			c0,0.2,0.2,0.7,0.6,1.3l2.8,4.2l2.6-4c0.4-0.6,0.6-1.1,0.6-1.4c0-0.6-0.4-0.9-1.3-0.9V206h4.7V206.4z"/>
		<linearGradient id="SVGID_4_" gradientUnits="userSpaceOnUse" x1="46.5942" y1="212.6563" x2="61.1108" y2="212.6563">
			<stop  offset="0" style="stop-color:#83CBA8"/>
			<stop  offset="3.524179e-02" style="stop-color:#77C0AA"/>
			<stop  offset="0.218" style="stop-color:#3799B1"/>
			<stop  offset="0.3773" style="stop-color:#0081B2"/>
			<stop  offset="0.5056" style="stop-color:#0074B3"/>
			<stop  offset="0.5867" style="stop-color:#0070B4"/>
			<stop  offset="1" style="stop-color:#145A92"/>
		</linearGradient>
		<path class="st3" d="M61.1,206.4h-0.5c-0.6,0-0.9,0.1-1.1,0.4c-0.2,0.3-0.3,0.8-0.3,1.5l0,11h-0.4l-8.8-10.5v8.1
			c0,0.9,0.1,1.4,0.4,1.6c0.2,0.2,0.6,0.3,1.1,0.3H52l0,0.4h-4.6l0-0.4h0.5c0.4,0,0.8-0.1,1-0.3c0.3-0.2,0.4-0.7,0.4-1.6l0-9.1
			c-0.4-0.5-0.9-0.9-1.3-1.1c-0.4-0.2-0.8-0.3-1.4-0.3V206h3.6l8.1,9.8v-7.6c0-0.9-0.1-1.4-0.4-1.6c-0.2-0.2-0.6-0.3-1.1-0.3h-0.5
			V206h4.6V206.4z"/>
		<linearGradient id="SVGID_5_" gradientUnits="userSpaceOnUse" x1="73.2593" y1="212.5508" x2="85.2583" y2="212.5508">
			<stop  offset="0" style="stop-color:#83CBA8"/>
			<stop  offset="3.524179e-02" style="stop-color:#77C0AA"/>
			<stop  offset="0.218" style="stop-color:#3799B1"/>
			<stop  offset="0.3773" style="stop-color:#0081B2"/>
			<stop  offset="0.5056" style="stop-color:#0074B3"/>
			<stop  offset="0.5867" style="stop-color:#0070B4"/>
			<stop  offset="1" style="stop-color:#145A92"/>
		</linearGradient>
		<path class="st4" d="M85.3,216c-1.3,2.2-3.1,3.4-5.5,3.4c-2,0-3.6-0.6-4.7-1.9c-1.2-1.3-1.8-2.9-1.8-4.7c0-2,0.6-3.7,1.9-5
			c1.3-1.3,2.9-2,4.8-2c1,0,1.9,0.2,2.8,0.7c0.3,0.1,0.5,0.2,0.6,0.2c0.4,0,0.7-0.3,0.8-0.9h0.3l0.3,4.5h-0.3
			c-0.8-2.5-2.2-3.8-4.5-3.8c-1.6,0-2.8,0.6-3.6,1.8c-0.8,1.2-1.1,2.7-1.1,4.6c0,1.9,0.5,3.4,1.4,4.3c0.9,1,2.1,1.4,3.6,1.4
			c1,0,1.8-0.2,2.5-0.6c0.6-0.4,1.3-1.1,2-2.1L85.3,216z"/>
		<linearGradient id="SVGID_6_" gradientUnits="userSpaceOnUse" x1="89.7158" y1="212.5508" x2="102.772" y2="212.5508">
			<stop  offset="0" style="stop-color:#83CBA8"/>
			<stop  offset="3.524179e-02" style="stop-color:#77C0AA"/>
			<stop  offset="0.218" style="stop-color:#3799B1"/>
			<stop  offset="0.3773" style="stop-color:#0081B2"/>
			<stop  offset="0.5056" style="stop-color:#0074B3"/>
			<stop  offset="0.5867" style="stop-color:#0070B4"/>
			<stop  offset="1" style="stop-color:#145A92"/>
		</linearGradient>
		<path class="st5" d="M102.8,212.5c0,1.9-0.6,3.6-1.9,4.9c-1.2,1.3-2.8,2-4.7,2c-1.3,0-2.4-0.3-3.4-0.9c-1-0.6-1.7-1.4-2.3-2.4
			c-0.6-1-0.8-2.2-0.8-3.6c0-2,0.6-3.6,1.9-4.9c1.3-1.3,2.9-1.9,4.7-1.9c1.2,0,2.3,0.3,3.2,0.9c0.9,0.6,1.7,1.4,2.3,2.4
			C102.5,210,102.8,211.2,102.8,212.5z M100.5,212.7c0-4.2-1.4-6.3-4.3-6.3c-0.8,0-1.5,0.2-2.1,0.6c-0.6,0.4-1.1,1.1-1.5,2
			c-0.4,0.9-0.6,2.1-0.6,3.5c0,1.9,0.4,3.4,1.1,4.6c0.7,1.1,1.8,1.7,3.1,1.7c1.4,0,2.5-0.5,3.2-1.6
			C100.2,216,100.5,214.6,100.5,212.7z"/>
		<linearGradient id="SVGID_7_" gradientUnits="userSpaceOnUse" x1="106.9468" y1="212.5542" x2="120.2109" y2="212.5542">
			<stop  offset="0" style="stop-color:#83CBA8"/>
			<stop  offset="3.524179e-02" style="stop-color:#77C0AA"/>
			<stop  offset="0.218" style="stop-color:#3799B1"/>
			<stop  offset="0.3773" style="stop-color:#0081B2"/>
			<stop  offset="0.5056" style="stop-color:#0074B3"/>
			<stop  offset="0.5867" style="stop-color:#0070B4"/>
			<stop  offset="1" style="stop-color:#145A92"/>
		</linearGradient>
		<path class="st6" d="M120.2,219.1l-3.6,0l-4.5-6.1c-0.3,0-0.6,0-0.8,0c-0.1,0-0.3,0-0.6,0l0,3.8c0,0.9,0.1,1.4,0.4,1.6
			c0.2,0.2,0.6,0.3,1,0.3h0.5l0,0.4h-5.7v-0.4h0.5c0.5,0,0.9-0.1,1.1-0.4c0.2-0.3,0.3-0.8,0.3-1.5l0-8.5c0-0.9-0.1-1.4-0.4-1.6
			c-0.2-0.2-0.6-0.3-1-0.3h-0.5V206h4.8c1.2,0,2.1,0.1,2.9,0.2c0.7,0.1,1.3,0.5,1.9,1.1c0.5,0.6,0.8,1.3,0.8,2
			c0,1.8-1.1,2.9-3.3,3.3l2.8,3.8c0.7,0.9,1.3,1.5,1.7,1.8c0.5,0.3,1,0.4,1.6,0.5L120.2,219.1z M110.7,206.9v5.4h0.6
			c1.2,0,2.1-0.2,2.8-0.7c0.7-0.5,1-1.2,1-2.1c0-0.9-0.3-1.6-0.9-2.1c-0.6-0.4-1.2-0.7-2-0.7C111.6,206.7,111.1,206.8,110.7,206.9z"
			/>
		<linearGradient id="SVGID_8_" gradientUnits="userSpaceOnUse" x1="123.419" y1="212.5542" x2="133.5625" y2="212.5542">
			<stop  offset="0" style="stop-color:#83CBA8"/>
			<stop  offset="3.524179e-02" style="stop-color:#77C0AA"/>
			<stop  offset="0.218" style="stop-color:#3799B1"/>
			<stop  offset="0.3773" style="stop-color:#0081B2"/>
			<stop  offset="0.5056" style="stop-color:#0074B3"/>
			<stop  offset="0.5867" style="stop-color:#0070B4"/>
			<stop  offset="1" style="stop-color:#145A92"/>
		</linearGradient>
		<path class="st7" d="M127.2,213v3.8c0,0.9,0.1,1.4,0.4,1.6c0.2,0.2,0.6,0.3,1,0.3h0.5l0,0.4h-5.7v-0.4h0.5c0.6,0,0.9-0.1,1.1-0.4
			c0.2-0.3,0.3-0.8,0.3-1.6v-8.5c0-0.9-0.1-1.4-0.4-1.6c-0.2-0.2-0.6-0.3-1-0.3h-0.5V206h4.9c1.8,0,3.2,0.3,4,1.1
			c0.8,0.7,1.2,1.6,1.2,2.6c0,1.1-0.4,2-1.1,2.6c-0.7,0.6-1.7,1-3,1C128.8,213.2,128.1,213.1,127.2,213z M127.2,207v5.4
			c0.7,0.1,1.2,0.2,1.6,0.2c0.8,0,1.4-0.3,1.9-0.9c0.4-0.6,0.7-1.2,0.7-1.9c0-1-0.3-1.7-0.8-2.2c-0.5-0.5-1.2-0.8-2-0.8
			C128.2,206.8,127.7,206.9,127.2,207z"/>
		<linearGradient id="SVGID_9_" gradientUnits="userSpaceOnUse" x1="138.0352" y1="212.5528" x2="151.0918" y2="212.5528">
			<stop  offset="0" style="stop-color:#83CBA8"/>
			<stop  offset="3.524179e-02" style="stop-color:#77C0AA"/>
			<stop  offset="0.218" style="stop-color:#3799B1"/>
			<stop  offset="0.3773" style="stop-color:#0081B2"/>
			<stop  offset="0.5056" style="stop-color:#0074B3"/>
			<stop  offset="0.5867" style="stop-color:#0070B4"/>
			<stop  offset="1" style="stop-color:#145A92"/>
		</linearGradient>
		<path class="st8" d="M151.1,212.5c0,1.9-0.6,3.6-1.9,4.9c-1.2,1.3-2.8,2-4.7,2c-1.3,0-2.4-0.3-3.4-0.9c-1-0.6-1.7-1.4-2.3-2.4
			c-0.6-1-0.8-2.2-0.8-3.6c0-2,0.6-3.6,1.9-4.9c1.3-1.3,2.9-1.9,4.7-1.9c1.2,0,2.3,0.3,3.2,0.9c0.9,0.6,1.7,1.4,2.3,2.4
			C150.8,210,151.1,211.2,151.1,212.5z M148.8,212.7c0-4.2-1.4-6.3-4.3-6.3c-0.8,0-1.5,0.2-2.1,0.6c-0.6,0.4-1.1,1.1-1.5,2
			c-0.4,0.9-0.6,2.1-0.6,3.5c0,1.9,0.4,3.4,1.1,4.5c0.7,1.1,1.8,1.7,3.1,1.7c1.4,0,2.5-0.5,3.2-1.6
			C148.5,216,148.8,214.6,148.8,212.7z"/>
		<linearGradient id="SVGID_10_" gradientUnits="userSpaceOnUse" x1="155.2656" y1="212.5542" x2="168.5293" y2="212.5542">
			<stop  offset="0" style="stop-color:#83CBA8"/>
			<stop  offset="3.524179e-02" style="stop-color:#77C0AA"/>
			<stop  offset="0.218" style="stop-color:#3799B1"/>
			<stop  offset="0.3773" style="stop-color:#0081B2"/>
			<stop  offset="0.5056" style="stop-color:#0074B3"/>
			<stop  offset="0.5867" style="stop-color:#0070B4"/>
			<stop  offset="1" style="stop-color:#145A92"/>
		</linearGradient>
		<path class="st9" d="M168.5,219.1H165l-4.5-6.1c-0.3,0-0.6,0-0.8,0c-0.1,0-0.3,0-0.6,0v3.8c0,0.9,0.1,1.4,0.4,1.6
			c0.2,0.2,0.6,0.3,1,0.3h0.5l0,0.4h-5.7v-0.4h0.5c0.6,0,0.9-0.1,1.1-0.4c0.2-0.3,0.3-0.8,0.3-1.5v-8.5c0-0.9-0.1-1.4-0.4-1.6
			c-0.2-0.2-0.6-0.3-1-0.3h-0.5V206h4.8c1.2,0,2.1,0.1,2.9,0.2c0.7,0.2,1.3,0.5,1.9,1.1c0.5,0.6,0.8,1.3,0.8,2
			c0,1.8-1.1,2.9-3.3,3.4l2.8,3.8c0.7,0.9,1.3,1.5,1.7,1.8c0.5,0.3,1,0.4,1.6,0.5L168.5,219.1z M159.1,206.9v5.4h0.6
			c1.2,0,2.1-0.2,2.8-0.8c0.7-0.5,1-1.2,1-2.1c0-0.9-0.3-1.6-0.9-2.1c-0.6-0.4-1.2-0.7-2-0.7C160,206.7,159.5,206.8,159.1,206.9z"/>
		<linearGradient id="SVGID_11_" gradientUnits="userSpaceOnUse" x1="171.5576" y1="212.4028" x2="185.7168" y2="212.4028">
			<stop  offset="0" style="stop-color:#83CBA8"/>
			<stop  offset="3.524179e-02" style="stop-color:#77C0AA"/>
			<stop  offset="0.218" style="stop-color:#3799B1"/>
			<stop  offset="0.3773" style="stop-color:#0081B2"/>
			<stop  offset="0.5056" style="stop-color:#0074B3"/>
			<stop  offset="0.5867" style="stop-color:#0070B4"/>
			<stop  offset="1" style="stop-color:#145A92"/>
		</linearGradient>
		<path class="st10" d="M185.7,219.1h-5.3l0-0.4c0.9,0,1.4-0.3,1.4-0.8c0-0.3-0.1-0.7-0.4-1.3l-0.8-1.9h-5.2l-0.9,2.1
			c-0.2,0.5-0.3,0.9-0.3,1.1c0,0.5,0.5,0.7,1.5,0.8l0,0.4h-4.2v-0.4c0.5-0.1,0.9-0.2,1.1-0.4c0.2-0.2,0.6-0.8,1.1-1.9l4.7-10.8h0.3
			l4.6,10.9c0.3,0.8,0.6,1.3,0.9,1.6c0.3,0.3,0.8,0.5,1.4,0.5L185.7,219.1z M180.3,214l-2.3-5.3l-2.3,5.3H180.3z"/>
		<linearGradient id="SVGID_12_" gradientUnits="userSpaceOnUse" x1="189.5957" y1="212.5552" x2="200.7832" y2="212.5552">
			<stop  offset="0" style="stop-color:#83CBA8"/>
			<stop  offset="3.524179e-02" style="stop-color:#77C0AA"/>
			<stop  offset="0.218" style="stop-color:#3799B1"/>
			<stop  offset="0.3773" style="stop-color:#0081B2"/>
			<stop  offset="0.5056" style="stop-color:#0074B3"/>
			<stop  offset="0.5867" style="stop-color:#0070B4"/>
			<stop  offset="1" style="stop-color:#145A92"/>
		</linearGradient>
		<path class="st11" d="M200.8,209.1h-0.4c-0.1-1.5-1-2.3-2.4-2.3h-1.9l0,10c0,0.9,0.1,1.4,0.4,1.6c0.2,0.2,0.6,0.3,1.1,0.3h0.5
			l0,0.4h-5.7l0-0.4h0.5c0.4,0,0.7-0.1,1-0.3c0.3-0.2,0.4-0.7,0.4-1.6l0-10h-1.6c-0.8,0-1.5,0.2-1.9,0.5c-0.4,0.3-0.7,0.9-0.7,1.8
			h-0.4l0.2-3.1h10.9L200.8,209.1z"/>
		<linearGradient id="SVGID_13_" gradientUnits="userSpaceOnUse" x1="204.8301" y1="212.5562" x2="210.5488" y2="212.5562">
			<stop  offset="0" style="stop-color:#83CBA8"/>
			<stop  offset="3.524179e-02" style="stop-color:#77C0AA"/>
			<stop  offset="0.218" style="stop-color:#3799B1"/>
			<stop  offset="0.3773" style="stop-color:#0081B2"/>
			<stop  offset="0.5056" style="stop-color:#0074B3"/>
			<stop  offset="0.5867" style="stop-color:#0070B4"/>
			<stop  offset="1" style="stop-color:#145A92"/>
		</linearGradient>
		<path class="st12" d="M210.5,219.1l-5.7,0l0-0.4h0.5c0.6,0,1-0.1,1.2-0.4c0.2-0.3,0.3-0.8,0.3-1.5v-8.5c0-0.8-0.1-1.4-0.3-1.6
			c-0.2-0.2-0.6-0.4-1.1-0.4h-0.5V206h5.7v0.4h-0.5c-0.4,0-0.7,0.1-1,0.3c-0.3,0.2-0.4,0.8-0.4,1.7v8.5c0,0.8,0.1,1.2,0.2,1.4
			c0.1,0.2,0.3,0.3,0.5,0.4c0.2,0.1,0.5,0.1,0.7,0.1l0.5,0L210.5,219.1z"/>
		<linearGradient id="SVGID_14_" gradientUnits="userSpaceOnUse" x1="214.792" y1="212.5562" x2="227.8477" y2="212.5562">
			<stop  offset="0" style="stop-color:#83CBA8"/>
			<stop  offset="3.524179e-02" style="stop-color:#77C0AA"/>
			<stop  offset="0.218" style="stop-color:#3799B1"/>
			<stop  offset="0.3773" style="stop-color:#0081B2"/>
			<stop  offset="0.5056" style="stop-color:#0074B3"/>
			<stop  offset="0.5867" style="stop-color:#0070B4"/>
			<stop  offset="1" style="stop-color:#145A92"/>
		</linearGradient>
		<path class="st13" d="M227.8,212.5c0,1.9-0.6,3.6-1.9,4.9c-1.2,1.3-2.8,2-4.7,2c-1.3,0-2.4-0.3-3.4-0.9c-1-0.6-1.7-1.4-2.3-2.4
			c-0.6-1-0.8-2.2-0.8-3.6c0-2,0.6-3.6,1.9-4.9c1.3-1.3,2.9-1.9,4.7-1.9c1.2,0,2.3,0.3,3.2,0.9c0.9,0.6,1.7,1.4,2.3,2.4
			C227.6,210,227.8,211.2,227.8,212.5z M225.6,212.7c0-4.2-1.4-6.3-4.3-6.3c-0.8,0-1.5,0.2-2.1,0.6c-0.6,0.4-1.1,1.1-1.5,2
			c-0.4,0.9-0.6,2.1-0.6,3.5c0,1.9,0.4,3.4,1.1,4.5c0.7,1.1,1.8,1.7,3.1,1.7c1.4,0,2.5-0.5,3.2-1.6
			C225.2,216.1,225.6,214.6,225.6,212.7z"/>
		<linearGradient id="SVGID_15_" gradientUnits="userSpaceOnUse" x1="231.4131" y1="212.6612" x2="245.9307" y2="212.6612">
			<stop  offset="0" style="stop-color:#83CBA8"/>
			<stop  offset="3.524179e-02" style="stop-color:#77C0AA"/>
			<stop  offset="0.218" style="stop-color:#3799B1"/>
			<stop  offset="0.3773" style="stop-color:#0081B2"/>
			<stop  offset="0.5056" style="stop-color:#0074B3"/>
			<stop  offset="0.5867" style="stop-color:#0070B4"/>
			<stop  offset="1" style="stop-color:#145A92"/>
		</linearGradient>
		<path class="st14" d="M245.9,206.4h-0.5c-0.6,0-0.9,0.1-1.1,0.4c-0.2,0.3-0.3,0.8-0.3,1.5l0,11h-0.4l-8.8-10.5v8.1
			c0,0.9,0.1,1.4,0.4,1.6c0.2,0.2,0.6,0.3,1.1,0.3h0.5l0,0.4h-4.6l0-0.4h0.5c0.4,0,0.8-0.1,1-0.3c0.3-0.2,0.4-0.7,0.4-1.6l0-9.1
			c-0.4-0.5-0.9-0.9-1.3-1.1c-0.4-0.2-0.8-0.3-1.4-0.3V206h3.6l8.1,9.8v-7.6c0-0.9-0.1-1.4-0.4-1.6c-0.2-0.2-0.6-0.3-1.1-0.3h-0.5
			V206h4.6V206.4z"/>
		<linearGradient id="SVGID_16_" gradientUnits="userSpaceOnUse" x1="258.0781" y1="212.5562" x2="270.0781" y2="212.5562">
			<stop  offset="0" style="stop-color:#83CBA8"/>
			<stop  offset="3.524179e-02" style="stop-color:#77C0AA"/>
			<stop  offset="0.218" style="stop-color:#3799B1"/>
			<stop  offset="0.3773" style="stop-color:#0081B2"/>
			<stop  offset="0.5056" style="stop-color:#0074B3"/>
			<stop  offset="0.5867" style="stop-color:#0070B4"/>
			<stop  offset="1" style="stop-color:#145A92"/>
		</linearGradient>
		<path class="st15" d="M270.1,216c-1.3,2.2-3.1,3.4-5.5,3.4c-2,0-3.6-0.6-4.7-1.9c-1.2-1.3-1.8-2.9-1.8-4.7c0-2,0.6-3.7,1.9-5
			c1.3-1.3,2.9-2,4.8-2c1,0,1.9,0.2,2.8,0.7c0.3,0.1,0.5,0.2,0.6,0.2c0.4,0,0.7-0.3,0.8-0.9h0.3l0.3,4.5h-0.3
			c-0.8-2.5-2.2-3.8-4.5-3.8c-1.6,0-2.8,0.6-3.6,1.8c-0.8,1.2-1.1,2.7-1.1,4.6c0,1.9,0.5,3.4,1.4,4.3c0.9,1,2.1,1.4,3.6,1.4
			c1,0,1.8-0.2,2.5-0.6c0.7-0.4,1.3-1.1,2-2.1L270.1,216z"/>
		<linearGradient id="SVGID_17_" gradientUnits="userSpaceOnUse" x1="274.5352" y1="212.5562" x2="287.5908" y2="212.5562">
			<stop  offset="0" style="stop-color:#83CBA8"/>
			<stop  offset="3.524179e-02" style="stop-color:#77C0AA"/>
			<stop  offset="0.218" style="stop-color:#3799B1"/>
			<stop  offset="0.3773" style="stop-color:#0081B2"/>
			<stop  offset="0.5056" style="stop-color:#0074B3"/>
			<stop  offset="0.5867" style="stop-color:#0070B4"/>
			<stop  offset="1" style="stop-color:#145A92"/>
		</linearGradient>
		<path class="st16" d="M287.6,212.5c0,1.9-0.6,3.6-1.9,4.9c-1.2,1.3-2.8,2-4.7,2c-1.3,0-2.4-0.3-3.4-0.9c-1-0.6-1.7-1.4-2.3-2.4
			c-0.6-1-0.8-2.2-0.8-3.6c0-2,0.6-3.6,1.9-4.9c1.3-1.3,2.9-1.9,4.7-1.9c1.2,0,2.3,0.3,3.2,0.9c0.9,0.6,1.7,1.4,2.3,2.4
			C287.3,210,287.6,211.2,287.6,212.5z M285.3,212.7c0-4.2-1.4-6.3-4.3-6.3c-0.8,0-1.5,0.2-2.1,0.6c-0.6,0.4-1.1,1.1-1.5,2
			c-0.4,0.9-0.6,2.1-0.6,3.5c0,1.9,0.4,3.4,1.1,4.5c0.7,1.1,1.8,1.7,3.1,1.7c1.4,0,2.5-0.5,3.2-1.6
			C285,216.1,285.3,214.6,285.3,212.7z"/>
		<linearGradient id="SVGID_18_" gradientUnits="userSpaceOnUse" x1="292.8379" y1="218.3018" x2="295.0205" y2="218.3018">
			<stop  offset="0" style="stop-color:#83CBA8"/>
			<stop  offset="3.524179e-02" style="stop-color:#77C0AA"/>
			<stop  offset="0.218" style="stop-color:#3799B1"/>
			<stop  offset="0.3773" style="stop-color:#0081B2"/>
			<stop  offset="0.5056" style="stop-color:#0074B3"/>
			<stop  offset="0.5867" style="stop-color:#0070B4"/>
			<stop  offset="1" style="stop-color:#145A92"/>
		</linearGradient>
		<path class="st17" d="M295,218.3c0,0.7-0.4,1.1-1.1,1.1c-0.7,0-1.1-0.4-1.1-1.1c0-0.7,0.4-1.1,1.1-1.1
			C294.7,217.2,295,217.6,295,218.3z"/>
		<linearGradient id="SVGID_19_" gradientUnits="userSpaceOnUse" x1="355.833" y1="218.3018" x2="358.0156" y2="218.3018">
			<stop  offset="0" style="stop-color:#83CBA8"/>
			<stop  offset="3.524179e-02" style="stop-color:#77C0AA"/>
			<stop  offset="0.218" style="stop-color:#3799B1"/>
			<stop  offset="0.3773" style="stop-color:#0081B2"/>
			<stop  offset="0.5056" style="stop-color:#0074B3"/>
			<stop  offset="0.5867" style="stop-color:#0070B4"/>
			<stop  offset="1" style="stop-color:#145A92"/>
		</linearGradient>
		<path class="st18" d="M358,218.3c0,0.7-0.4,1.1-1.1,1.1c-0.7,0-1.1-0.4-1.1-1.1c0-0.7,0.4-1.1,1.1-1.1
			C357.7,217.2,358,217.6,358,218.3z"/>
		<linearGradient id="SVGID_20_" gradientUnits="userSpaceOnUse" x1="300.5811" y1="219.7812" x2="303.5156" y2="219.7812">
			<stop  offset="0" style="stop-color:#83CBA8"/>
			<stop  offset="3.524179e-02" style="stop-color:#77C0AA"/>
			<stop  offset="0.218" style="stop-color:#3799B1"/>
			<stop  offset="0.3773" style="stop-color:#0081B2"/>
			<stop  offset="0.5056" style="stop-color:#0074B3"/>
			<stop  offset="0.5867" style="stop-color:#0070B4"/>
			<stop  offset="1" style="stop-color:#145A92"/>
		</linearGradient>
		<path class="st19" d="M300.6,222.4V222c1.4-0.5,2.1-1.3,2.1-2.5c0-0.3-0.1-0.4-0.2-0.4c-0.1,0-0.2,0.1-0.5,0.2
			c-0.1,0.1-0.2,0.1-0.4,0.1c-0.7,0-1.1-0.4-1.1-1.1c0-0.3,0.1-0.6,0.4-0.8c0.3-0.2,0.5-0.3,0.9-0.3c0.5,0,0.9,0.2,1.2,0.6
			c0.3,0.4,0.4,0.9,0.4,1.4C303.5,220.7,302.5,221.8,300.6,222.4z"/>
		<linearGradient id="SVGID_21_" gradientUnits="userSpaceOnUse" x1="307.9893" y1="212.5572" x2="319.4512" y2="212.5572">
			<stop  offset="0" style="stop-color:#83CBA8"/>
			<stop  offset="3.524179e-02" style="stop-color:#77C0AA"/>
			<stop  offset="0.218" style="stop-color:#3799B1"/>
			<stop  offset="0.3773" style="stop-color:#0081B2"/>
			<stop  offset="0.5056" style="stop-color:#0074B3"/>
			<stop  offset="0.5867" style="stop-color:#0070B4"/>
			<stop  offset="1" style="stop-color:#145A92"/>
		</linearGradient>
		<path class="st20" d="M319.5,215.5l-1.1,3.6H308l0-0.4h0.5c0.6,0,0.9-0.1,1.1-0.4c0.2-0.3,0.3-0.8,0.3-1.5l0-8.4
			c0-0.9-0.1-1.4-0.4-1.6c-0.3-0.2-0.6-0.3-1-0.3H308V206h6v0.4c-0.6,0-1,0-1.3,0.2c-0.3,0.1-0.6,0.3-0.7,0.5
			c-0.1,0.2-0.2,0.7-0.2,1.6l0,8.2c0,0.7,0.1,1.1,0.3,1.2c0.2,0.2,0.8,0.2,1.8,0.2h1c0.8,0,1.4,0,1.9-0.1c0.5-0.1,0.9-0.3,1.3-0.7
			c0.4-0.4,0.8-1,1.2-1.9L319.5,215.5z"/>
		<linearGradient id="SVGID_22_" gradientUnits="userSpaceOnUse" x1="323.5459" y1="212.5572" x2="334.7305" y2="212.5572">
			<stop  offset="0" style="stop-color:#83CBA8"/>
			<stop  offset="3.524179e-02" style="stop-color:#77C0AA"/>
			<stop  offset="0.218" style="stop-color:#3799B1"/>
			<stop  offset="0.3773" style="stop-color:#0081B2"/>
			<stop  offset="0.5056" style="stop-color:#0074B3"/>
			<stop  offset="0.5867" style="stop-color:#0070B4"/>
			<stop  offset="1" style="stop-color:#145A92"/>
		</linearGradient>
		<path class="st21" d="M334.7,209.1h-0.4c-0.1-1.5-1-2.3-2.4-2.3H330v10c0,0.9,0.1,1.4,0.4,1.6c0.2,0.2,0.6,0.3,1.1,0.3h0.5l0,0.4
			h-5.7l0-0.4h0.5c0.4,0,0.7-0.1,1-0.3c0.3-0.2,0.4-0.7,0.4-1.6v-10h-1.6c-0.8,0-1.5,0.2-1.9,0.5c-0.4,0.3-0.7,0.9-0.7,1.8h-0.4
			l0.2-3.1h10.9L334.7,209.1z"/>
		<linearGradient id="SVGID_23_" gradientUnits="userSpaceOnUse" x1="338.6299" y1="212.5572" x2="352.0537" y2="212.5572">
			<stop  offset="0" style="stop-color:#83CBA8"/>
			<stop  offset="3.524179e-02" style="stop-color:#77C0AA"/>
			<stop  offset="0.218" style="stop-color:#3799B1"/>
			<stop  offset="0.3773" style="stop-color:#0081B2"/>
			<stop  offset="0.5056" style="stop-color:#0074B3"/>
			<stop  offset="0.5867" style="stop-color:#0070B4"/>
			<stop  offset="1" style="stop-color:#145A92"/>
		</linearGradient>
		<path class="st22" d="M338.6,219.1v-0.4h0.5c0.6,0,0.9-0.1,1.1-0.4c0.2-0.3,0.3-0.8,0.3-1.5v-8.5c0-0.9-0.1-1.4-0.4-1.6
			c-0.3-0.2-0.6-0.3-1-0.3h-0.5V206h5.4c1.5,0,2.8,0.1,3.9,0.4c1.1,0.3,2.1,1,2.9,2c0.8,1.1,1.2,2.4,1.2,4c0,1.2-0.3,2.4-0.8,3.4
			c-0.5,1-1.4,1.8-2.5,2.4c-1.1,0.6-2.5,0.8-4.2,0.8H338.6z M342.4,207v11.1c0.8,0.2,1.5,0.3,2.1,0.3c1.8,0,3.1-0.6,4-1.8
			c0.9-1.2,1.3-2.5,1.3-4.1c0-1.8-0.5-3.2-1.5-4.2c-1-1.1-2.3-1.6-3.9-1.6C343.9,206.7,343.2,206.8,342.4,207z"/>
	</g>
	<g>
		<linearGradient id="SVGID_24_" gradientUnits="userSpaceOnUse" x1="162.0674" y1="149.0737" x2="184.9004" y2="149.0737">
			<stop  offset="0" style="stop-color:#40B97E"/>
			<stop  offset="1" style="stop-color:#0069AF"/>
		</linearGradient>
		<path class="st23" d="M184.9,154.9l-2.3,7h-20.6l0-0.7h1c1.1,0,1.9-0.3,2.3-0.8c0.4-0.6,0.6-1.6,0.6-3v-16.5
			c0-1.7-0.2-2.8-0.7-3.2c-0.5-0.4-1.2-0.6-2.1-0.6h-1v-0.7h12v0.7c-1.1,0-2,0.1-2.6,0.3c-0.7,0.2-1.1,0.5-1.4,0.9
			c-0.3,0.4-0.4,1.4-0.4,3.1v16.1c0,1.3,0.2,2.1,0.6,2.4c0.4,0.3,1.6,0.5,3.5,0.5h1.9c1.6,0,2.8-0.1,3.7-0.3
			c0.9-0.2,1.7-0.6,2.5-1.4c0.8-0.8,1.6-2,2.3-3.8L184.9,154.9z"/>
		<linearGradient id="SVGID_25_" gradientUnits="userSpaceOnUse" x1="192.2246" y1="149.0737" x2="220.2207" y2="149.0737">
			<stop  offset="0" style="stop-color:#40B97E"/>
			<stop  offset="1" style="stop-color:#0069AF"/>
		</linearGradient>
		<path class="st24" d="M220.2,137h-0.5c-0.6,0-1.3,0.2-2.1,0.6c-0.8,0.4-1.8,1.7-3.2,3.7l-6.4,9.7v6.4c0,1.7,0.2,2.7,0.7,3.1
			c0.5,0.4,1.2,0.6,2.2,0.6h0.9l0,0.7h-11.3l0-0.7h0.9c1.2,0,1.9-0.3,2.3-0.8c0.4-0.5,0.5-1.5,0.5-2.9v-6.1l-7.3-10.7
			c-0.7-1.1-1.3-1.8-1.6-2.2c-0.3-0.4-0.8-0.7-1.5-1c-0.7-0.3-1.2-0.5-1.7-0.5v-0.7h11.3v0.7H203c-1.6,0-2.5,0.6-2.5,1.7
			c0,0.5,0.4,1.3,1.2,2.5l5.5,8.3l5.2-7.9c0.8-1.2,1.2-2.1,1.2-2.7c0-1.2-0.9-1.8-2.7-1.8v-0.7h9.3V137z"/>
		<linearGradient id="SVGID_26_" gradientUnits="userSpaceOnUse" x1="226.3555" y1="149.2823" x2="255.2686" y2="149.2823">
			<stop  offset="0" style="stop-color:#40B97E"/>
			<stop  offset="1" style="stop-color:#0069AF"/>
		</linearGradient>
		<path class="st25" d="M255.3,137h-0.9c-1.1,0-1.9,0.3-2.3,0.8c-0.4,0.5-0.6,1.5-0.6,2.9v21.6h-0.7l-17.5-20.6v15.8
			c0,1.7,0.2,2.7,0.7,3.1c0.5,0.4,1.2,0.6,2.1,0.6h0.9l0,0.7h-9.2l0-0.7h0.9c0.8,0,1.5-0.2,2-0.6c0.5-0.4,0.8-1.4,0.8-3.1v-17.8
			c-0.9-1-1.7-1.7-2.5-2.1c-0.8-0.4-1.7-0.6-2.7-0.6v-0.7h7.2l16.2,19.2v-14.8c0-1.7-0.2-2.7-0.7-3.1c-0.5-0.4-1.2-0.6-2.1-0.6H246
			v-0.7h9.2V137z"/>
	</g>
	<g>
		<linearGradient id="SVGID_27_" gradientUnits="userSpaceOnUse" x1="67.9639" y1="24.0518" x2="233.1016" y2="24.0518">
			<stop  offset="0" style="stop-color:#83CBA8"/>
			<stop  offset="3.524179e-02" style="stop-color:#77C0AA"/>
			<stop  offset="0.218" style="stop-color:#3799B1"/>
			<stop  offset="0.3773" style="stop-color:#0081B2"/>
			<stop  offset="0.5056" style="stop-color:#0074B3"/>
			<stop  offset="0.5867" style="stop-color:#0070B4"/>
			<stop  offset="1" style="stop-color:#145A92"/>
		</linearGradient>
		<rect x="68" class="st26" width="165.1" height="48.1"/>
		<linearGradient id="SVGID_28_" gradientUnits="userSpaceOnUse" x1="184.3624" y1="90.7699" x2="48.1421" y2="66.4212">
			<stop  offset="0" style="stop-color:#83CBA8"/>
			<stop  offset="3.524179e-02" style="stop-color:#77C0AA"/>
			<stop  offset="0.218" style="stop-color:#3799B1"/>
			<stop  offset="0.3773" style="stop-color:#0081B2"/>
			<stop  offset="0.5056" style="stop-color:#0074B3"/>
			<stop  offset="0.5867" style="stop-color:#0070B4"/>
			<stop  offset="1" style="stop-color:#145A92"/>
		</linearGradient>
		<polygon class="st27" points="68,94.8 162.1,110 162.1,61.9 68,48.1 		"/>
		<linearGradient id="SVGID_29_" gradientUnits="userSpaceOnUse" x1="67.9639" y1="128.718" x2="114.0283" y2="128.718">
			<stop  offset="0" style="stop-color:#83CBA8"/>
			<stop  offset="3.524179e-02" style="stop-color:#77C0AA"/>
			<stop  offset="0.218" style="stop-color:#3799B1"/>
			<stop  offset="0.3773" style="stop-color:#0081B2"/>
			<stop  offset="0.5056" style="stop-color:#0074B3"/>
			<stop  offset="0.5867" style="stop-color:#0070B4"/>
			<stop  offset="1" style="stop-color:#145A92"/>
		</linearGradient>
		<polygon class="st28" points="68,94.8 114,110 114,162.6 68,138.9 		"/>
		<polygon class="st29" points="162.1,61.9 233.1,48.1 68,48.1 		"/>
		<polygon class="st29" points="114,110 162.1,110 68,94.8 		"/>
	</g>
	<linearGradient id="SVGID_30_" gradientUnits="userSpaceOnUse" x1="76.1279" y1="96.1419" x2="268.2051" y2="96.1419">
		<stop  offset="0" style="stop-color:#40B97E"/>
		<stop  offset="1" style="stop-color:#0069AF"/>
	</linearGradient>
	<polygon class="st30" points="237.9,8.9 237.9,14.1 264.4,14.1 264.4,178.8 80,178.8 80,150.4 76.1,148.4 76.1,183.3 268.2,183.3 
		268.2,8.9 	"/>
</g>
</svg>
