<?xml version="1.0" encoding="utf-8"?>
<!-- Generator: Adobe Illustrator 25.0.0, SVG Export Plug-In . SVG Version: 6.00 Build 0)  -->
<svg version="1.1" id="Layer_1" xmlns="http://www.w3.org/2000/svg" xmlns:xlink="http://www.w3.org/1999/xlink" x="0px" y="0px"
	 viewBox="0 0 627.5 117.2" style="enable-background:new 0 0 627.5 117.2;" xml:space="preserve">
<style type="text/css">
	.st0{fill:url(#SVGID_1_);}
	.st1{fill:url(#SVGID_2_);}
	.st2{fill:url(#SVGID_3_);}
	.st3{fill:url(#SVGID_4_);}
	.st4{fill:url(#SVGID_5_);}
	.st5{fill:url(#SVGID_6_);}
	.st6{fill:#414042;}
	.st7{fill:url(#SVGID_7_);}
	.st8{fill:url(#SVGID_8_);}
	.st9{fill:url(#SVGID_9_);}
	.st10{fill:url(#SVGID_10_);}
	.st11{fill:url(#SVGID_11_);}
	.st12{fill:url(#SVGID_12_);}
	.st13{fill:url(#SVGID_13_);}
	.st14{fill:url(#SVGID_14_);}
	.st15{fill:url(#SVGID_15_);}
	.st16{fill:url(#SVGID_16_);}
	.st17{fill:url(#SVGID_17_);}
	.st18{fill:url(#SVGID_18_);}
	.st19{fill:url(#SVGID_19_);}
	.st20{fill:url(#SVGID_20_);}
	.st21{fill:url(#SVGID_21_);}
	.st22{fill:url(#SVGID_22_);}
	.st23{fill:url(#SVGID_23_);}
	.st24{fill:url(#SVGID_24_);}
	.st25{fill:url(#SVGID_25_);}
	.st26{fill:url(#SVGID_26_);}
	.st27{fill:url(#SVGID_27_);}
	.st28{fill:url(#SVGID_28_);}
	.st29{fill:url(#SVGID_29_);}
	.st30{fill:url(#SVGID_30_);}
</style>
<g>
	<linearGradient id="SVGID_1_" gradientUnits="userSpaceOnUse" x1="60.1414" y1="95.2728" x2="74.7339" y2="95.2728">
		<stop  offset="0" style="stop-color:#40B97E"/>
		<stop  offset="1" style="stop-color:#0069AF"/>
	</linearGradient>
	<path class="st0" d="M74.7,99l-1.4,4.4H60.2l0-0.4h0.6c0.7,0,1.2-0.2,1.4-0.5c0.2-0.4,0.4-1,0.4-1.9V90c0-1.1-0.2-1.8-0.5-2
		c-0.3-0.3-0.8-0.4-1.3-0.4h-0.6v-0.4h7.7v0.4c-0.7,0-1.3,0.1-1.7,0.2c-0.4,0.1-0.7,0.3-0.9,0.6c-0.2,0.3-0.3,0.9-0.3,2v10.3
		c0,0.8,0.1,1.3,0.4,1.6c0.2,0.2,1,0.3,2.2,0.3h1.2c1,0,1.8-0.1,2.4-0.2c0.6-0.1,1.1-0.4,1.6-0.9c0.5-0.5,1-1.3,1.5-2.4L74.7,99z"/>
	<linearGradient id="SVGID_2_" gradientUnits="userSpaceOnUse" x1="79.4148" y1="95.2728" x2="97.307" y2="95.2728">
		<stop  offset="0" style="stop-color:#40B97E"/>
		<stop  offset="1" style="stop-color:#0069AF"/>
	</linearGradient>
	<path class="st1" d="M97.3,87.5H97c-0.4,0-0.8,0.1-1.3,0.4c-0.5,0.3-1.2,1.1-2,2.4l-4.1,6.2v4.1c0,1.1,0.2,1.7,0.5,2
		c0.3,0.3,0.8,0.4,1.4,0.4h0.6l0,0.4h-7.2l0-0.4h0.6c0.7,0,1.2-0.2,1.5-0.5c0.2-0.3,0.3-1,0.3-1.9v-3.9l-4.7-6.9
		c-0.5-0.7-0.8-1.2-1-1.4c-0.2-0.2-0.5-0.5-0.9-0.7c-0.4-0.2-0.8-0.3-1.1-0.3v-0.4h7.3v0.4h-0.4c-1,0-1.6,0.4-1.6,1.1
		c0,0.3,0.3,0.8,0.8,1.6l3.5,5.3l3.3-5c0.5-0.8,0.8-1.3,0.8-1.7c0-0.8-0.6-1.2-1.7-1.2v-0.4h5.9V87.5z"/>
	<linearGradient id="SVGID_3_" gradientUnits="userSpaceOnUse" x1="101.2278" y1="95.406" x2="119.7061" y2="95.406">
		<stop  offset="0" style="stop-color:#40B97E"/>
		<stop  offset="1" style="stop-color:#0069AF"/>
	</linearGradient>
	<path class="st2" d="M119.7,87.5h-0.6c-0.7,0-1.2,0.2-1.4,0.5c-0.2,0.3-0.4,1-0.4,1.9v13.8h-0.5l-11.2-13.2v10.1
		c0,1.1,0.2,1.7,0.5,2c0.3,0.3,0.8,0.4,1.3,0.4h0.6l0,0.4h-5.9l0-0.4h0.6c0.5,0,1-0.1,1.3-0.4c0.3-0.3,0.5-0.9,0.5-2V89.2
		c-0.6-0.6-1.1-1.1-1.6-1.3c-0.5-0.2-1.1-0.4-1.7-0.4v-0.4h4.6l10.4,12.3v-9.5c0-1.1-0.2-1.7-0.5-2c-0.3-0.3-0.8-0.4-1.3-0.4h-0.6
		v-0.4h5.9V87.5z"/>
</g>
<g>
	<linearGradient id="SVGID_4_" gradientUnits="userSpaceOnUse" x1="0" y1="15.3714" x2="105.5392" y2="15.3714">
		<stop  offset="0" style="stop-color:#83CBA8"/>
		<stop  offset="3.524179e-02" style="stop-color:#77C0AA"/>
		<stop  offset="0.218" style="stop-color:#3799B1"/>
		<stop  offset="0.3773" style="stop-color:#0081B2"/>
		<stop  offset="0.5056" style="stop-color:#0074B3"/>
		<stop  offset="0.5867" style="stop-color:#0070B4"/>
		<stop  offset="1" style="stop-color:#145A92"/>
	</linearGradient>
	<rect class="st3" width="105.5" height="30.7"/>
	<linearGradient id="SVGID_5_" gradientUnits="userSpaceOnUse" x1="74.3901" y1="58.0109" x2="-12.6681" y2="42.4497">
		<stop  offset="0" style="stop-color:#83CBA8"/>
		<stop  offset="3.524179e-02" style="stop-color:#77C0AA"/>
		<stop  offset="0.218" style="stop-color:#3799B1"/>
		<stop  offset="0.3773" style="stop-color:#0081B2"/>
		<stop  offset="0.5056" style="stop-color:#0074B3"/>
		<stop  offset="0.5867" style="stop-color:#0070B4"/>
		<stop  offset="1" style="stop-color:#145A92"/>
	</linearGradient>
	<polygon class="st4" points="0,60.6 60.1,70.3 60.1,39.6 0,30.7 	"/>
	<linearGradient id="SVGID_6_" gradientUnits="userSpaceOnUse" x1="0" y1="82.2635" x2="29.4397" y2="82.2635">
		<stop  offset="0" style="stop-color:#83CBA8"/>
		<stop  offset="3.524179e-02" style="stop-color:#77C0AA"/>
		<stop  offset="0.218" style="stop-color:#3799B1"/>
		<stop  offset="0.3773" style="stop-color:#0081B2"/>
		<stop  offset="0.5056" style="stop-color:#0074B3"/>
		<stop  offset="0.5867" style="stop-color:#0070B4"/>
		<stop  offset="1" style="stop-color:#145A92"/>
	</linearGradient>
	<polygon class="st5" points="0,60.6 29.4,70.3 29.4,103.9 0,88.8 	"/>
	<polygon class="st6" points="60.1,39.6 105.5,30.7 0,30.7 	"/>
	<polygon class="st6" points="29.4,70.3 60.1,70.3 0,60.6 	"/>
</g>
<linearGradient id="SVGID_7_" gradientUnits="userSpaceOnUse" x1="5.2176" y1="61.4441" x2="127.9738" y2="61.4441">
	<stop  offset="0" style="stop-color:#40B97E"/>
	<stop  offset="1" style="stop-color:#0069AF"/>
</linearGradient>
<polygon class="st7" points="108.6,5.7 108.6,9 125.5,9 125.5,114.3 7.7,114.3 7.7,96.1 5.2,94.8 5.2,117.2 128,117.2 128,5.7 "/>
<g>
	<g>
		<linearGradient id="SVGID_8_" gradientUnits="userSpaceOnUse" x1="164.6364" y1="59.5079" x2="177.619" y2="59.5079">
			<stop  offset="0" style="stop-color:#83CBA8"/>
			<stop  offset="3.524179e-02" style="stop-color:#77C0AA"/>
			<stop  offset="0.218" style="stop-color:#3799B1"/>
			<stop  offset="0.3773" style="stop-color:#0081B2"/>
			<stop  offset="0.5056" style="stop-color:#0074B3"/>
			<stop  offset="0.5867" style="stop-color:#0070B4"/>
			<stop  offset="1" style="stop-color:#145A92"/>
		</linearGradient>
		<path class="st8" d="M177.6,54.8h-0.5c-0.2-0.8-0.6-1.5-1-2c-0.4-0.5-1.4-0.8-2.8-0.8h-3.8v6.6h3.1c0.8,0,1.4-0.2,1.7-0.5
			c0.3-0.4,0.5-1,0.6-1.8h0.5V62h-0.5c0-0.9-0.2-1.5-0.6-1.8c-0.4-0.4-0.9-0.5-1.7-0.5h-3.1l0,5.3c0,0.9,0.1,1.5,0.2,1.7
			c0.1,0.2,0.3,0.4,0.7,0.6c0.3,0.2,0.7,0.2,1,0.2h0.6l0,0.5h-7.4v-0.5h0.6c0.8,0,1.3-0.2,1.5-0.6c0.2-0.4,0.3-1,0.3-2l0-10.9
			c0-1.1-0.1-1.8-0.4-2.1c-0.3-0.3-0.8-0.5-1.4-0.5h-0.6V51h12.8L177.6,54.8z"/>
		<linearGradient id="SVGID_9_" gradientUnits="userSpaceOnUse" x1="183.1527" y1="59.5079" x2="197.9725" y2="59.5079">
			<stop  offset="0" style="stop-color:#83CBA8"/>
			<stop  offset="3.524179e-02" style="stop-color:#77C0AA"/>
			<stop  offset="0.218" style="stop-color:#3799B1"/>
			<stop  offset="0.3773" style="stop-color:#0081B2"/>
			<stop  offset="0.5056" style="stop-color:#0074B3"/>
			<stop  offset="0.5867" style="stop-color:#0070B4"/>
			<stop  offset="1" style="stop-color:#145A92"/>
		</linearGradient>
		<path class="st9" d="M198,63.4l-1.5,4.6h-13.3l0-0.5h0.6c0.7,0,1.2-0.2,1.5-0.5c0.3-0.4,0.4-1,0.4-2l0-10.9c0-1.1-0.2-1.8-0.5-2.1
			c-0.3-0.3-0.8-0.4-1.4-0.4h-0.6V51h7.8v0.5c-0.7,0-1.3,0.1-1.7,0.2c-0.4,0.1-0.7,0.3-0.9,0.6c-0.2,0.3-0.3,0.9-0.3,2l0,10.6
			c0,0.9,0.1,1.4,0.4,1.6c0.3,0.2,1,0.3,2.3,0.3h1.3c1,0,1.8-0.1,2.4-0.2c0.6-0.1,1.1-0.4,1.6-0.9c0.5-0.5,1-1.3,1.5-2.5L198,63.4z"
			/>
		<linearGradient id="SVGID_10_" gradientUnits="userSpaceOnUse" x1="202.7258" y1="59.5079" x2="220.8992" y2="59.5079">
			<stop  offset="0" style="stop-color:#83CBA8"/>
			<stop  offset="3.524179e-02" style="stop-color:#77C0AA"/>
			<stop  offset="0.218" style="stop-color:#3799B1"/>
			<stop  offset="0.3773" style="stop-color:#0081B2"/>
			<stop  offset="0.5056" style="stop-color:#0074B3"/>
			<stop  offset="0.5867" style="stop-color:#0070B4"/>
			<stop  offset="1" style="stop-color:#145A92"/>
		</linearGradient>
		<path class="st10" d="M220.9,51.5h-0.3c-0.4,0-0.9,0.1-1.3,0.4c-0.5,0.3-1.2,1.1-2.1,2.4l-4.2,6.4l0,4.2c0,1.1,0.2,1.8,0.5,2.1
			c0.3,0.3,0.8,0.4,1.4,0.4h0.6l0,0.5h-7.3l0-0.5h0.6c0.8,0,1.2-0.2,1.5-0.5c0.2-0.4,0.4-1,0.4-1.9l0-4l-4.7-7.1
			c-0.5-0.7-0.8-1.2-1-1.4c-0.2-0.2-0.5-0.5-0.9-0.7c-0.4-0.2-0.8-0.3-1.1-0.3V51h7.4v0.5h-0.4c-1.1,0-1.6,0.4-1.6,1.1
			c0,0.3,0.3,0.9,0.8,1.6l3.6,5.4l3.4-5.2c0.5-0.8,0.8-1.4,0.8-1.8c0-0.8-0.6-1.2-1.7-1.2V51h6V51.5z"/>
		<linearGradient id="SVGID_11_" gradientUnits="userSpaceOnUse" x1="224.8809" y1="59.6449" x2="243.6503" y2="59.6449">
			<stop  offset="0" style="stop-color:#83CBA8"/>
			<stop  offset="3.524179e-02" style="stop-color:#77C0AA"/>
			<stop  offset="0.218" style="stop-color:#3799B1"/>
			<stop  offset="0.3773" style="stop-color:#0081B2"/>
			<stop  offset="0.5056" style="stop-color:#0074B3"/>
			<stop  offset="0.5867" style="stop-color:#0070B4"/>
			<stop  offset="1" style="stop-color:#145A92"/>
		</linearGradient>
		<path class="st11" d="M243.7,51.5H243c-0.7,0-1.2,0.2-1.5,0.5c-0.2,0.3-0.4,1-0.4,1.9l0,14.3h-0.5l-11.4-13.6V65
			c0,1.1,0.2,1.8,0.5,2.1c0.3,0.3,0.8,0.4,1.4,0.4h0.6l0,0.5h-6l0-0.5h0.6c0.5,0,1-0.1,1.3-0.4c0.3-0.3,0.5-1,0.5-2.1l0-11.8
			c-0.6-0.7-1.1-1.1-1.6-1.4c-0.5-0.3-1.1-0.4-1.8-0.4V51h4.7l10.5,12.7V54c0-1.1-0.2-1.8-0.5-2.1c-0.3-0.3-0.8-0.4-1.4-0.4h-0.6V51
			h6V51.5z"/>
		<linearGradient id="SVGID_12_" gradientUnits="userSpaceOnUse" x1="259.3579" y1="59.5085" x2="274.8721" y2="59.5085">
			<stop  offset="0" style="stop-color:#83CBA8"/>
			<stop  offset="3.524179e-02" style="stop-color:#77C0AA"/>
			<stop  offset="0.218" style="stop-color:#3799B1"/>
			<stop  offset="0.3773" style="stop-color:#0081B2"/>
			<stop  offset="0.5056" style="stop-color:#0074B3"/>
			<stop  offset="0.5867" style="stop-color:#0070B4"/>
			<stop  offset="1" style="stop-color:#145A92"/>
		</linearGradient>
		<path class="st12" d="M274.9,64c-1.7,2.9-4,4.4-7.1,4.4c-2.6,0-4.6-0.8-6.1-2.5c-1.5-1.7-2.3-3.7-2.3-6.1c0-2.6,0.8-4.8,2.5-6.5
			c1.7-1.7,3.8-2.6,6.3-2.6c1.3,0,2.5,0.3,3.7,0.9c0.4,0.2,0.6,0.3,0.8,0.3c0.5,0,0.9-0.4,1.1-1.2h0.5l0.4,5.8h-0.4
			c-1-3.2-2.9-4.9-5.8-4.9c-2.1,0-3.6,0.8-4.6,2.3c-1,1.6-1.5,3.5-1.5,5.9c0,2.5,0.6,4.4,1.8,5.6c1.2,1.2,2.7,1.9,4.6,1.9
			c1.3,0,2.3-0.3,3.2-0.8c0.8-0.6,1.7-1.4,2.6-2.7L274.9,64z"/>
		<linearGradient id="SVGID_13_" gradientUnits="userSpaceOnUse" x1="280.6355" y1="59.5085" x2="297.5167" y2="59.5085">
			<stop  offset="0" style="stop-color:#83CBA8"/>
			<stop  offset="3.524179e-02" style="stop-color:#77C0AA"/>
			<stop  offset="0.218" style="stop-color:#3799B1"/>
			<stop  offset="0.3773" style="stop-color:#0081B2"/>
			<stop  offset="0.5056" style="stop-color:#0074B3"/>
			<stop  offset="0.5867" style="stop-color:#0070B4"/>
			<stop  offset="1" style="stop-color:#145A92"/>
		</linearGradient>
		<path class="st13" d="M297.5,59.4c0,2.5-0.8,4.6-2.4,6.4c-1.6,1.7-3.6,2.6-6.1,2.6c-1.7,0-3.1-0.4-4.4-1.1c-1.2-0.8-2.2-1.8-3-3.1
			c-0.7-1.3-1.1-2.9-1.1-4.6c0-2.5,0.8-4.6,2.5-6.3c1.7-1.7,3.7-2.5,6.1-2.5c1.6,0,3,0.4,4.2,1.2c1.2,0.8,2.2,1.8,3,3.1
			C297.1,56.3,297.5,57.7,297.5,59.4z M294.6,59.7c0-5.5-1.9-8.2-5.6-8.2c-1,0-1.9,0.3-2.7,0.8c-0.8,0.5-1.5,1.4-2,2.6
			c-0.5,1.2-0.8,2.7-0.8,4.5c0,2.5,0.5,4.4,1.4,5.9c1,1.5,2.3,2.2,4,2.2c1.8,0,3.2-0.7,4.2-2.1C294.1,64,294.6,62.1,294.6,59.7z"/>
		<linearGradient id="SVGID_14_" gradientUnits="userSpaceOnUse" x1="302.9145" y1="59.5129" x2="320.0645" y2="59.5129">
			<stop  offset="0" style="stop-color:#83CBA8"/>
			<stop  offset="3.524179e-02" style="stop-color:#77C0AA"/>
			<stop  offset="0.218" style="stop-color:#3799B1"/>
			<stop  offset="0.3773" style="stop-color:#0081B2"/>
			<stop  offset="0.5056" style="stop-color:#0074B3"/>
			<stop  offset="0.5867" style="stop-color:#0070B4"/>
			<stop  offset="1" style="stop-color:#145A92"/>
		</linearGradient>
		<path class="st14" d="M320.1,68l-4.6,0l-5.8-7.9c-0.4,0-0.8,0-1.1,0c-0.1,0-0.4,0-0.8,0l0,4.9c0,1.1,0.2,1.8,0.5,2.1
			c0.3,0.3,0.8,0.4,1.3,0.4h0.7l0,0.5h-7.4v-0.5h0.6c0.7,0,1.2-0.2,1.4-0.5c0.3-0.4,0.4-1,0.4-2l0-10.9c0-1.1-0.2-1.8-0.5-2.1
			c-0.3-0.3-0.8-0.4-1.3-0.4h-0.6v-0.5h6.3c1.5,0,2.8,0.1,3.7,0.3c0.9,0.2,1.7,0.7,2.4,1.4c0.7,0.7,1,1.6,1,2.6
			c0,2.3-1.4,3.7-4.2,4.3l3.6,4.9c0.9,1.2,1.6,2,2.3,2.3c0.6,0.3,1.3,0.5,2.1,0.6L320.1,68z M307.8,52.2v7h0.7c1.5,0,2.7-0.3,3.6-1
			c0.9-0.6,1.3-1.6,1.3-2.7c0-1.2-0.4-2.1-1.1-2.7c-0.7-0.6-1.6-0.9-2.6-0.9C309,52,308.3,52.1,307.8,52.2z"/>
		<linearGradient id="SVGID_15_" gradientUnits="userSpaceOnUse" x1="324.2124" y1="59.5129" x2="337.3276" y2="59.5129">
			<stop  offset="0" style="stop-color:#83CBA8"/>
			<stop  offset="3.524179e-02" style="stop-color:#77C0AA"/>
			<stop  offset="0.218" style="stop-color:#3799B1"/>
			<stop  offset="0.3773" style="stop-color:#0081B2"/>
			<stop  offset="0.5056" style="stop-color:#0074B3"/>
			<stop  offset="0.5867" style="stop-color:#0070B4"/>
			<stop  offset="1" style="stop-color:#145A92"/>
		</linearGradient>
		<path class="st15" d="M329.1,60.1V65c0,1.1,0.2,1.8,0.5,2.1c0.3,0.3,0.8,0.4,1.3,0.4h0.7l0,0.5h-7.4v-0.5h0.6
			c0.7,0,1.2-0.2,1.4-0.5c0.2-0.3,0.4-1,0.4-2V54c0-1.1-0.2-1.8-0.5-2.1c-0.3-0.3-0.8-0.4-1.3-0.4h-0.6v-0.5h6.3
			c2.4,0,4.1,0.5,5.2,1.4c1.1,0.9,1.6,2,1.6,3.3c0,1.5-0.5,2.6-1.4,3.4c-1,0.8-2.3,1.2-3.9,1.2C331.2,60.4,330.2,60.3,329.1,60.1z
			 M329.1,52.3v7c0.9,0.2,1.6,0.2,2.1,0.2c1,0,1.8-0.4,2.4-1.1c0.6-0.7,0.9-1.6,0.9-2.5c0-1.3-0.3-2.2-1-2.9c-0.7-0.7-1.6-1-2.6-1
			C330.3,52.1,329.8,52.1,329.1,52.3z"/>
		<linearGradient id="SVGID_16_" gradientUnits="userSpaceOnUse" x1="343.1106" y1="59.5111" x2="359.9923" y2="59.5111">
			<stop  offset="0" style="stop-color:#83CBA8"/>
			<stop  offset="3.524179e-02" style="stop-color:#77C0AA"/>
			<stop  offset="0.218" style="stop-color:#3799B1"/>
			<stop  offset="0.3773" style="stop-color:#0081B2"/>
			<stop  offset="0.5056" style="stop-color:#0074B3"/>
			<stop  offset="0.5867" style="stop-color:#0070B4"/>
			<stop  offset="1" style="stop-color:#145A92"/>
		</linearGradient>
		<path class="st16" d="M360,59.4c0,2.5-0.8,4.6-2.4,6.4c-1.6,1.7-3.6,2.6-6.1,2.6c-1.7,0-3.1-0.4-4.4-1.1c-1.2-0.8-2.2-1.8-3-3.1
			c-0.7-1.3-1.1-2.9-1.1-4.6c0-2.5,0.8-4.6,2.5-6.3c1.7-1.7,3.7-2.5,6.1-2.5c1.6,0,3,0.4,4.2,1.2c1.2,0.8,2.2,1.8,3,3.1
			C359.6,56.3,360,57.7,360,59.4z M357.1,59.7c0-5.5-1.9-8.2-5.6-8.2c-1,0-1.9,0.3-2.7,0.8c-0.8,0.5-1.5,1.4-2,2.6
			c-0.5,1.2-0.8,2.7-0.8,4.5c0,2.5,0.5,4.4,1.4,5.9c1,1.5,2.3,2.2,4,2.2c1.8,0,3.2-0.7,4.2-2.1C356.6,64,357.1,62.1,357.1,59.7z"/>
		<linearGradient id="SVGID_17_" gradientUnits="userSpaceOnUse" x1="365.3889" y1="59.5129" x2="382.5383" y2="59.5129">
			<stop  offset="0" style="stop-color:#83CBA8"/>
			<stop  offset="3.524179e-02" style="stop-color:#77C0AA"/>
			<stop  offset="0.218" style="stop-color:#3799B1"/>
			<stop  offset="0.3773" style="stop-color:#0081B2"/>
			<stop  offset="0.5056" style="stop-color:#0074B3"/>
			<stop  offset="0.5867" style="stop-color:#0070B4"/>
			<stop  offset="1" style="stop-color:#145A92"/>
		</linearGradient>
		<path class="st17" d="M382.5,68h-4.6l-5.8-7.9c-0.4,0-0.8,0-1,0c-0.1,0-0.4,0-0.8,0V65c0,1.1,0.2,1.8,0.5,2.1
			c0.3,0.3,0.8,0.4,1.3,0.4h0.7l0,0.5h-7.4v-0.5h0.6c0.7,0,1.2-0.2,1.4-0.5c0.3-0.4,0.4-1,0.4-2V54c0-1.1-0.2-1.8-0.5-2.1
			c-0.3-0.3-0.8-0.4-1.3-0.4h-0.6v-0.5h6.3c1.5,0,2.8,0.1,3.7,0.3c0.9,0.2,1.7,0.7,2.4,1.4c0.7,0.8,1,1.6,1,2.6
			c0,2.3-1.4,3.7-4.2,4.3l3.6,4.9c0.9,1.2,1.6,2,2.3,2.3c0.6,0.3,1.3,0.5,2.1,0.6L382.5,68z M370.3,52.2v7h0.7c1.5,0,2.7-0.3,3.6-1
			c0.9-0.6,1.3-1.6,1.3-2.7c0-1.2-0.4-2.1-1.1-2.7c-0.7-0.6-1.6-0.9-2.6-0.9C371.5,52,370.8,52.1,370.3,52.2z"/>
		<linearGradient id="SVGID_18_" gradientUnits="userSpaceOnUse" x1="386.4538" y1="59.3172" x2="404.7611" y2="59.3172">
			<stop  offset="0" style="stop-color:#83CBA8"/>
			<stop  offset="3.524179e-02" style="stop-color:#77C0AA"/>
			<stop  offset="0.218" style="stop-color:#3799B1"/>
			<stop  offset="0.3773" style="stop-color:#0081B2"/>
			<stop  offset="0.5056" style="stop-color:#0074B3"/>
			<stop  offset="0.5867" style="stop-color:#0070B4"/>
			<stop  offset="1" style="stop-color:#145A92"/>
		</linearGradient>
		<path class="st18" d="M404.8,68H398l0-0.5c1.2-0.1,1.8-0.4,1.8-1c0-0.4-0.2-0.9-0.5-1.7l-1-2.4h-6.7l-1.2,2.7
			c-0.3,0.6-0.4,1.1-0.4,1.5c0,0.6,0.7,1,2,1.1l0,0.5h-5.4v-0.5c0.6-0.1,1.1-0.3,1.4-0.5c0.3-0.2,0.8-1,1.4-2.4l6.1-13.9h0.4l6,14.1
			c0.4,1,0.8,1.7,1.2,2.1c0.4,0.4,1,0.6,1.8,0.7L404.8,68z M397.8,61.4l-2.9-6.8l-3,6.8H397.8z"/>
		<linearGradient id="SVGID_19_" gradientUnits="userSpaceOnUse" x1="409.7764" y1="59.5142" x2="424.2414" y2="59.5142">
			<stop  offset="0" style="stop-color:#83CBA8"/>
			<stop  offset="3.524179e-02" style="stop-color:#77C0AA"/>
			<stop  offset="0.218" style="stop-color:#3799B1"/>
			<stop  offset="0.3773" style="stop-color:#0081B2"/>
			<stop  offset="0.5056" style="stop-color:#0074B3"/>
			<stop  offset="0.5867" style="stop-color:#0070B4"/>
			<stop  offset="1" style="stop-color:#145A92"/>
		</linearGradient>
		<path class="st19" d="M424.2,55h-0.5c-0.2-1.9-1.2-2.9-3.1-2.9h-2.4l0,12.9c0,1.1,0.2,1.8,0.5,2.1c0.3,0.3,0.8,0.4,1.4,0.4h0.6
			l0,0.5h-7.3l0-0.5h0.6c0.5,0,1-0.1,1.3-0.4c0.3-0.3,0.5-1,0.5-2.1l0-12.9h-2.1c-1.1,0-1.9,0.2-2.5,0.6c-0.5,0.4-0.9,1.2-1,2.3
			h-0.5l0.2-4H424L424.2,55z"/>
		<linearGradient id="SVGID_20_" gradientUnits="userSpaceOnUse" x1="429.4739" y1="59.5155" x2="436.8679" y2="59.5155">
			<stop  offset="0" style="stop-color:#83CBA8"/>
			<stop  offset="3.524179e-02" style="stop-color:#77C0AA"/>
			<stop  offset="0.218" style="stop-color:#3799B1"/>
			<stop  offset="0.3773" style="stop-color:#0081B2"/>
			<stop  offset="0.5056" style="stop-color:#0074B3"/>
			<stop  offset="0.5867" style="stop-color:#0070B4"/>
			<stop  offset="1" style="stop-color:#145A92"/>
		</linearGradient>
		<path class="st20" d="M436.9,68l-7.4,0l0-0.5h0.6c0.8,0,1.3-0.2,1.5-0.5c0.2-0.4,0.3-1,0.3-2V54c0-1.1-0.1-1.8-0.4-2.1
			c-0.3-0.3-0.8-0.5-1.4-0.5h-0.6v-0.5h7.4v0.5h-0.6c-0.5,0-0.9,0.1-1.3,0.4c-0.4,0.3-0.5,1-0.5,2.1V65c0,1,0.1,1.6,0.2,1.8
			c0.1,0.2,0.4,0.4,0.7,0.5c0.3,0.1,0.6,0.2,0.9,0.2l0.6,0L436.9,68z"/>
		<linearGradient id="SVGID_21_" gradientUnits="userSpaceOnUse" x1="442.3542" y1="59.5155" x2="459.2347" y2="59.5155">
			<stop  offset="0" style="stop-color:#83CBA8"/>
			<stop  offset="3.524179e-02" style="stop-color:#77C0AA"/>
			<stop  offset="0.218" style="stop-color:#3799B1"/>
			<stop  offset="0.3773" style="stop-color:#0081B2"/>
			<stop  offset="0.5056" style="stop-color:#0074B3"/>
			<stop  offset="0.5867" style="stop-color:#0070B4"/>
			<stop  offset="1" style="stop-color:#145A92"/>
		</linearGradient>
		<path class="st21" d="M459.2,59.4c0,2.5-0.8,4.6-2.4,6.4c-1.6,1.7-3.6,2.6-6.1,2.6c-1.7,0-3.1-0.4-4.3-1.1c-1.2-0.8-2.2-1.8-3-3.1
			c-0.7-1.3-1.1-2.9-1.1-4.6c0-2.5,0.8-4.6,2.5-6.3c1.7-1.7,3.7-2.5,6.1-2.5c1.6,0,3,0.4,4.2,1.2c1.2,0.8,2.2,1.8,3,3.1
			C458.9,56.3,459.2,57.7,459.2,59.4z M456.3,59.8c0-5.5-1.9-8.2-5.6-8.2c-1,0-1.9,0.3-2.7,0.8c-0.8,0.5-1.5,1.4-2,2.6
			c-0.5,1.2-0.7,2.7-0.7,4.5c0,2.5,0.5,4.4,1.4,5.9c1,1.5,2.3,2.2,4,2.2c1.8,0,3.2-0.7,4.2-2.1C455.9,64,456.3,62.1,456.3,59.8z"/>
		<linearGradient id="SVGID_22_" gradientUnits="userSpaceOnUse" x1="463.8447" y1="59.6512" x2="482.6154" y2="59.6512">
			<stop  offset="0" style="stop-color:#83CBA8"/>
			<stop  offset="3.524179e-02" style="stop-color:#77C0AA"/>
			<stop  offset="0.218" style="stop-color:#3799B1"/>
			<stop  offset="0.3773" style="stop-color:#0081B2"/>
			<stop  offset="0.5056" style="stop-color:#0074B3"/>
			<stop  offset="0.5867" style="stop-color:#0070B4"/>
			<stop  offset="1" style="stop-color:#145A92"/>
		</linearGradient>
		<path class="st22" d="M482.6,51.5H482c-0.7,0-1.2,0.2-1.5,0.5c-0.2,0.4-0.4,1-0.4,1.9l0,14.3h-0.5l-11.4-13.6V65
			c0,1.1,0.2,1.8,0.5,2.1c0.3,0.3,0.8,0.4,1.4,0.4h0.6l0,0.5h-6l0-0.5h0.6c0.5,0,1-0.1,1.3-0.4c0.3-0.3,0.5-1,0.5-2.1l0-11.8
			c-0.6-0.7-1.1-1.1-1.6-1.4c-0.5-0.3-1.1-0.4-1.8-0.4v-0.5h4.7l10.5,12.7V54c0-1.1-0.2-1.8-0.5-2.1c-0.3-0.3-0.8-0.4-1.4-0.4h-0.6
			v-0.5h6V51.5z"/>
		<linearGradient id="SVGID_23_" gradientUnits="userSpaceOnUse" x1="498.3215" y1="59.5155" x2="513.837" y2="59.5155">
			<stop  offset="0" style="stop-color:#83CBA8"/>
			<stop  offset="3.524179e-02" style="stop-color:#77C0AA"/>
			<stop  offset="0.218" style="stop-color:#3799B1"/>
			<stop  offset="0.3773" style="stop-color:#0081B2"/>
			<stop  offset="0.5056" style="stop-color:#0074B3"/>
			<stop  offset="0.5867" style="stop-color:#0070B4"/>
			<stop  offset="1" style="stop-color:#145A92"/>
		</linearGradient>
		<path class="st23" d="M513.8,64c-1.7,2.9-4,4.4-7.1,4.4c-2.6,0-4.6-0.8-6.1-2.5c-1.5-1.7-2.3-3.7-2.3-6.1c0-2.6,0.8-4.8,2.5-6.5
			c1.7-1.7,3.8-2.6,6.3-2.6c1.3,0,2.5,0.3,3.7,0.9c0.4,0.2,0.6,0.3,0.8,0.3c0.5,0,0.9-0.4,1.1-1.2h0.5l0.4,5.8h-0.4
			c-1-3.2-2.9-4.9-5.8-4.9c-2.1,0-3.6,0.8-4.6,2.3c-1,1.6-1.5,3.5-1.5,5.9c0,2.5,0.6,4.4,1.8,5.6c1.2,1.2,2.7,1.9,4.6,1.9
			c1.3,0,2.3-0.3,3.2-0.8c0.8-0.6,1.7-1.4,2.6-2.7L513.8,64z"/>
		<linearGradient id="SVGID_24_" gradientUnits="userSpaceOnUse" x1="519.5999" y1="59.5155" x2="536.4803" y2="59.5155">
			<stop  offset="0" style="stop-color:#83CBA8"/>
			<stop  offset="3.524179e-02" style="stop-color:#77C0AA"/>
			<stop  offset="0.218" style="stop-color:#3799B1"/>
			<stop  offset="0.3773" style="stop-color:#0081B2"/>
			<stop  offset="0.5056" style="stop-color:#0074B3"/>
			<stop  offset="0.5867" style="stop-color:#0070B4"/>
			<stop  offset="1" style="stop-color:#145A92"/>
		</linearGradient>
		<path class="st24" d="M536.5,59.4c0,2.5-0.8,4.6-2.4,6.4c-1.6,1.7-3.6,2.6-6.1,2.6c-1.7,0-3.1-0.4-4.3-1.1c-1.2-0.8-2.2-1.8-3-3.1
			c-0.7-1.3-1.1-2.9-1.1-4.6c0-2.5,0.8-4.6,2.5-6.3c1.7-1.7,3.7-2.5,6.1-2.5c1.6,0,3,0.4,4.2,1.2c1.2,0.8,2.2,1.8,3,3.1
			C536.1,56.3,536.5,57.7,536.5,59.4z M533.6,59.8c0-5.5-1.9-8.2-5.6-8.2c-1,0-1.9,0.3-2.7,0.8c-0.8,0.5-1.5,1.4-2,2.6
			c-0.5,1.2-0.7,2.7-0.7,4.5c0,2.5,0.5,4.4,1.4,5.9c1,1.5,2.3,2.2,4,2.2c1.8,0,3.2-0.7,4.2-2.1C533.1,64,533.6,62.1,533.6,59.8z"/>
		<linearGradient id="SVGID_25_" gradientUnits="userSpaceOnUse" x1="543.2646" y1="66.9443" x2="546.0866" y2="66.9443">
			<stop  offset="0" style="stop-color:#83CBA8"/>
			<stop  offset="3.524179e-02" style="stop-color:#77C0AA"/>
			<stop  offset="0.218" style="stop-color:#3799B1"/>
			<stop  offset="0.3773" style="stop-color:#0081B2"/>
			<stop  offset="0.5056" style="stop-color:#0074B3"/>
			<stop  offset="0.5867" style="stop-color:#0070B4"/>
			<stop  offset="1" style="stop-color:#145A92"/>
		</linearGradient>
		<path class="st25" d="M546.1,66.9c0,0.9-0.5,1.4-1.4,1.4c-0.9,0-1.4-0.5-1.4-1.4c0-0.9,0.5-1.4,1.4-1.4
			C545.6,65.6,546.1,66,546.1,66.9z"/>
		<linearGradient id="SVGID_26_" gradientUnits="userSpaceOnUse" x1="624.7148" y1="66.9443" x2="627.5368" y2="66.9443">
			<stop  offset="0" style="stop-color:#83CBA8"/>
			<stop  offset="3.524179e-02" style="stop-color:#77C0AA"/>
			<stop  offset="0.218" style="stop-color:#3799B1"/>
			<stop  offset="0.3773" style="stop-color:#0081B2"/>
			<stop  offset="0.5056" style="stop-color:#0074B3"/>
			<stop  offset="0.5867" style="stop-color:#0070B4"/>
			<stop  offset="1" style="stop-color:#145A92"/>
		</linearGradient>
		<path class="st26" d="M627.5,66.9c0,0.9-0.5,1.4-1.4,1.4c-0.9,0-1.4-0.5-1.4-1.4c0-0.9,0.5-1.4,1.4-1.4
			C627.1,65.6,627.5,66,627.5,66.9z"/>
		<linearGradient id="SVGID_27_" gradientUnits="userSpaceOnUse" x1="553.2762" y1="68.8572" x2="557.0704" y2="68.8572">
			<stop  offset="0" style="stop-color:#83CBA8"/>
			<stop  offset="3.524179e-02" style="stop-color:#77C0AA"/>
			<stop  offset="0.218" style="stop-color:#3799B1"/>
			<stop  offset="0.3773" style="stop-color:#0081B2"/>
			<stop  offset="0.5056" style="stop-color:#0074B3"/>
			<stop  offset="0.5867" style="stop-color:#0070B4"/>
			<stop  offset="1" style="stop-color:#145A92"/>
		</linearGradient>
		<path class="st27" d="M553.3,72.2v-0.5c1.8-0.6,2.7-1.7,2.7-3.2c0-0.3-0.1-0.5-0.3-0.5c-0.1,0-0.3,0.1-0.6,0.2
			c-0.1,0.1-0.3,0.1-0.5,0.1c-0.9,0-1.4-0.5-1.4-1.4c0-0.4,0.2-0.8,0.5-1.1c0.3-0.3,0.7-0.4,1.2-0.4c0.7,0,1.2,0.3,1.6,0.8
			c0.4,0.5,0.6,1.1,0.6,1.8C557.1,70,555.8,71.4,553.3,72.2z"/>
		<linearGradient id="SVGID_28_" gradientUnits="userSpaceOnUse" x1="562.8547" y1="59.5168" x2="577.6746" y2="59.5168">
			<stop  offset="0" style="stop-color:#83CBA8"/>
			<stop  offset="3.524179e-02" style="stop-color:#77C0AA"/>
			<stop  offset="0.218" style="stop-color:#3799B1"/>
			<stop  offset="0.3773" style="stop-color:#0081B2"/>
			<stop  offset="0.5056" style="stop-color:#0074B3"/>
			<stop  offset="0.5867" style="stop-color:#0070B4"/>
			<stop  offset="1" style="stop-color:#145A92"/>
		</linearGradient>
		<path class="st28" d="M577.7,63.4l-1.5,4.6h-13.3l0-0.5h0.6c0.7,0,1.2-0.2,1.5-0.5c0.3-0.4,0.4-1,0.4-2l0-10.9
			c0-1.1-0.2-1.8-0.5-2.1c-0.3-0.3-0.8-0.4-1.4-0.4h-0.6v-0.5h7.8v0.5c-0.7,0-1.3,0.1-1.7,0.2c-0.4,0.1-0.7,0.3-0.9,0.6
			c-0.2,0.3-0.3,0.9-0.3,2l0,10.6c0,0.9,0.1,1.4,0.4,1.6c0.3,0.2,1,0.3,2.3,0.3h1.3c1,0,1.8-0.1,2.4-0.2c0.6-0.1,1.1-0.4,1.6-0.9
			c0.5-0.5,1-1.3,1.5-2.5L577.7,63.4z"/>
		<linearGradient id="SVGID_29_" gradientUnits="userSpaceOnUse" x1="582.9688" y1="59.5168" x2="597.4301" y2="59.5168">
			<stop  offset="0" style="stop-color:#83CBA8"/>
			<stop  offset="3.524179e-02" style="stop-color:#77C0AA"/>
			<stop  offset="0.218" style="stop-color:#3799B1"/>
			<stop  offset="0.3773" style="stop-color:#0081B2"/>
			<stop  offset="0.5056" style="stop-color:#0074B3"/>
			<stop  offset="0.5867" style="stop-color:#0070B4"/>
			<stop  offset="1" style="stop-color:#145A92"/>
		</linearGradient>
		<path class="st29" d="M597.4,55H597c-0.2-1.9-1.2-2.9-3.2-2.9h-2.4V65c0,1.1,0.2,1.8,0.5,2.1c0.3,0.3,0.8,0.4,1.4,0.4h0.6l0,0.5
			h-7.3l0-0.5h0.6c0.5,0,1-0.1,1.3-0.4c0.3-0.3,0.5-1,0.5-2.1V52.1h-2.1c-1.1,0-1.9,0.2-2.4,0.6c-0.5,0.4-0.9,1.2-1,2.3H583l0.2-4
			h14.1L597.4,55z"/>
		<linearGradient id="SVGID_30_" gradientUnits="userSpaceOnUse" x1="602.4719" y1="59.5168" x2="619.8283" y2="59.5168">
			<stop  offset="0" style="stop-color:#83CBA8"/>
			<stop  offset="3.524179e-02" style="stop-color:#77C0AA"/>
			<stop  offset="0.218" style="stop-color:#3799B1"/>
			<stop  offset="0.3773" style="stop-color:#0081B2"/>
			<stop  offset="0.5056" style="stop-color:#0074B3"/>
			<stop  offset="0.5867" style="stop-color:#0070B4"/>
			<stop  offset="1" style="stop-color:#145A92"/>
		</linearGradient>
		<path class="st30" d="M602.5,68v-0.5h0.6c0.7,0,1.2-0.2,1.5-0.5c0.2-0.4,0.4-1,0.4-2V54.1c0-1.1-0.2-1.8-0.5-2.1
			c-0.3-0.3-0.8-0.4-1.3-0.4h-0.6v-0.5h7c2,0,3.6,0.2,5.1,0.6c1.4,0.4,2.7,1.3,3.7,2.6c1,1.4,1.6,3.1,1.6,5.2c0,1.6-0.4,3.1-1.1,4.4
			c-0.7,1.3-1.8,2.3-3.2,3.1c-1.4,0.7-3.2,1.1-5.4,1.1H602.5z M607.4,52.4v14.4c1.1,0.2,2,0.3,2.7,0.3c2.3,0,4-0.8,5.1-2.3
			c1.1-1.5,1.7-3.3,1.7-5.3c0-2.3-0.6-4.1-1.9-5.5c-1.3-1.4-2.9-2.1-5-2.1C609.2,52,608.4,52.1,607.4,52.4z"/>
	</g>
</g>
</svg>
